<?xml version="1.0" encoding="UTF-8" standalone="no"?>
<!-- Created with Inkscape (http://www.inkscape.org/) -->

<svg
   width="120"
   height="120"
   viewBox="0 0 120 120"
   version="1.1"
   id="svg1"
   xmlns:inkscape="http://www.inkscape.org/namespaces/inkscape"
   xmlns:sodipodi="http://sodipodi.sourceforge.net/DTD/sodipodi-0.dtd"
   xmlns="http://www.w3.org/2000/svg"
   xmlns:svg="http://www.w3.org/2000/svg">
  <sodipodi:namedview
     id="namedview1"
     pagecolor="#ffffff"
     bordercolor="#000000"
     borderopacity="0.25"
     inkscape:showpageshadow="2"
     inkscape:pageopacity="0.0"
     inkscape:pagecheckerboard="0"
     inkscape:deskcolor="#d1d1d1"
     inkscape:document-units="px" />
  <defs
     id="defs1" />
  <g
     inkscape:label="Layer 1"
     inkscape:groupmode="layer"
     id="layer1">
    <path
       id="path6"
       style="fill:#0a0a0a;fill-opacity:1;stroke-width:0.897472;stroke-linecap:round;stroke-linejoin:round"
       inkscape:transform-center-x="10.998284"
       inkscape:transform-center-y="13.825637"
       d="M 60,8.1738281 A 36.847411,36.847411 0 0 0 23.152344,45.021484 36.847411,36.847411 0 0 0 29.498047,65.607422 c 2.505783,4.706377 6.123252,10.742316 10.753906,18.708984 21.328438,36.693854 18.552422,36.702654 39.666016,-0.115234 4.478087,-7.808891 7.998711,-13.768946 10.472656,-18.445313 A 36.847411,36.847411 0 0 0 96.847656,45.021484 36.847411,36.847411 0 0 0 60,8.1738281 Z M 60,20.365234 A 24.866789,24.657488 0 0 1 84.867188,45.021484 24.866789,24.657488 0 0 1 60,69.679688 24.866789,24.657488 0 0 1 35.132812,45.021484 24.866789,24.657488 0 0 1 60,20.365234 Z" />
  </g>
</svg>
